<?xml version="1.0" encoding="UTF-8" standalone="no"?>
<svg
   xmlns:dc="http://purl.org/dc/elements/1.1/"
   xmlns:cc="http://creativecommons.org/ns#"
   xmlns:rdf="http://www.w3.org/1999/02/22-rdf-syntax-ns#"
   xmlns:svg="http://www.w3.org/2000/svg"
   xmlns="http://www.w3.org/2000/svg"
   xmlns:sodipodi="http://sodipodi.sourceforge.net/DTD/sodipodi-0.dtd"
   xmlns:inkscape="http://www.inkscape.org/namespaces/inkscape"
   viewBox="0 0 708.66 425.20"
   version="1.1"
   id="svg178"
   sodipodi:docname="D24.Monochrome.svg"
   inkscape:export-filename="C:\Users\Personal\Desktop\RProjects\R_Tidytuesday\2022\W01_Bring_your_own_data\W01_Bring_your_own_data.png"
   inkscape:export-xdpi="320.20001"
   inkscape:export-ydpi="320.20001"
   inkscape:version="1.0.1 (3bc2e813f5, 2020-09-07)">
  <metadata
     id="metadata182">
    <rdf:RDF>
      <cc:Work
         rdf:about="">
        <dc:format>image/svg+xml</dc:format>
        <dc:type
           rdf:resource="http://purl.org/dc/dcmitype/StillImage" />
      </cc:Work>
    </rdf:RDF>
  </metadata>
  <sodipodi:namedview
     pagecolor="#ffffff"
     bordercolor="#666666"
     borderopacity="1"
     objecttolerance="10"
     gridtolerance="10"
     guidetolerance="10"
     inkscape:pageopacity="0"
     inkscape:pageshadow="2"
     inkscape:window-width="1366"
     inkscape:window-height="716"
     id="namedview180"
     showgrid="false"
     inkscape:zoom="1.2888052"
     inkscape:cx="354.32999"
     inkscape:cy="212.60001"
     inkscape:window-x="-8"
     inkscape:window-y="-8"
     inkscape:window-maximized="1"
     inkscape:current-layer="svg178" />
  <defs
     id="defs4">
    <style
       type="text/css"
       id="style2"><![CDATA[
    line, polyline, polygon, path, rect, circle {
      fill: none;
      stroke: #000000;
      stroke-linecap: round;
      stroke-linejoin: round;
      stroke-miterlimit: 10.00;
    }
  ]]></style>
  </defs>
  <rect
     width="100%"
     height="100%"
     style="stroke: none; fill: #FFFFFF;"
     id="rect6" />
  <rect
     x="0.00"
     y="0.00"
     width="708.66"
     height="425.20"
     style="stroke-width: 1.07; stroke: #FFFFFF; fill: #F5F5F5;"
     id="rect8" />
  <rect
     x="37.45"
     y="117.76"
     width="656.27"
     height="262.30"
     style="stroke-width: 1.07; stroke: none; fill: #F5F5F5;"
     id="rect10" />
  <polyline
     points="67.28,129.68 122.65,129.68 172.67,129.68 228.04,288.65 281.63,209.17 337.00,209.17 390.59,288.65 445.96,209.17 501.34,288.65 554.93,368.14 610.30,368.14 663.89,288.65 "
     style="stroke-width: 2.67; stroke: #211A1D; stroke-linecap: butt;"
     id="polyline12" />
  <circle
     cx="228.04"
     cy="288.65"
     r="4.46"
     style="stroke-width: 2.13; stroke: #211A1D; fill: #F5F5F5;"
     id="circle14" />
  <circle
     cx="445.96"
     cy="209.17"
     r="6.76"
     style="stroke-width: 2.13; stroke: #211A1D; fill: #F5F5F5;"
     id="circle16" />
  <circle
     cx="663.89"
     cy="288.65"
     r="4.02"
     style="stroke-width: 2.13; stroke: #211A1D; fill: #F5F5F5;"
     id="circle18" />
  <circle
     cx="122.65"
     cy="129.68"
     r="7.73"
     style="stroke-width: 2.13; stroke: #211A1D; fill: #F5F5F5;"
     id="circle20" />
  <circle
     cx="67.28"
     cy="129.68"
     r="4.28"
     style="stroke-width: 2.13; stroke: #211A1D; fill: #F5F5F5;"
     id="circle22" />
  <circle
     cx="390.59"
     cy="288.65"
     r="5.66"
     style="stroke-width: 2.13; stroke: #211A1D; fill: #F5F5F5;"
     id="circle24" />
  <circle
     cx="337.00"
     cy="209.17"
     r="5.36"
     style="stroke-width: 2.13; stroke: #211A1D; fill: #F5F5F5;"
     id="circle26" />
  <circle
     cx="172.67"
     cy="129.68"
     r="4.16"
     style="stroke-width: 2.13; stroke: #211A1D; fill: #F5F5F5;"
     id="circle28" />
  <circle
     cx="281.63"
     cy="209.17"
     r="4.41"
     style="stroke-width: 2.13; stroke: #211A1D; fill: #F5F5F5;"
     id="circle30" />
  <circle
     cx="501.34"
     cy="288.65"
     r="8.53"
     style="stroke-width: 2.13; stroke: #211A1D; fill: #F5F5F5;"
     id="circle32" />
  <circle
     cx="554.93"
     cy="368.14"
     r="1.06"
     style="stroke-width: 2.13; stroke: #211A1D; fill: #F5F5F5;"
     id="circle34" />
  <circle
     cx="610.30"
     cy="368.14"
     r="1.06"
     style="stroke-width: 2.13; stroke: #211A1D; fill: #F5F5F5;"
     id="circle36" />
  <polyline
     points="136.83,129.68 136.80,128.79 136.72,127.90 136.58,127.02 136.38,126.15 136.14,125.30 135.83,124.46 135.48,123.64 135.08,122.85 134.62,122.08 134.12,121.35 133.58,120.64 132.99,119.98 132.36,119.35 131.69,118.76 130.99,118.21 130.25,117.71 129.49,117.26 128.69,116.85 127.87,116.50 127.04,116.20 126.18,115.95 125.31,115.76 124.43,115.62 123.55,115.53 122.66,115.50 121.77,115.53 120.88,115.62 120.00,115.76 119.13,115.95 118.28,116.20 117.44,116.50 116.62,116.85 115.83,117.26 115.06,117.71 114.33,118.21 113.62,118.76 112.95,119.35 112.33,119.98 111.74,120.64 111.19,121.35 110.69,122.08 110.24,122.85 109.83,123.64 109.48,124.46 109.18,125.30 108.93,126.15 108.73,127.02 108.60,127.90 108.51,128.79 108.48,129.68 108.51,130.57 108.60,131.45 108.73,132.33 108.93,133.20 109.18,134.06 109.48,134.89 109.83,135.71 110.24,136.51 110.69,137.27 111.19,138.01 111.74,138.71 112.33,139.38 112.95,140.01 113.62,140.60 114.33,141.14 115.06,141.64 115.83,142.10 116.62,142.50 117.44,142.86 118.28,143.16 119.13,143.41 120.00,143.60 120.88,143.74 121.77,143.82 122.66,143.85 123.55,143.82 124.43,143.74 125.31,143.60 126.18,143.41 127.04,143.16 127.87,142.86 128.69,142.50 129.49,142.10 130.25,141.64 130.99,141.14 131.69,140.60 132.36,140.01 132.99,139.38 133.58,138.71 134.12,138.01 134.62,137.27 135.08,136.51 135.48,135.71 135.83,134.89 136.14,134.06 136.38,133.20 136.58,132.33 136.72,131.45 136.80,130.57 136.83,129.68 "
     style="stroke-width: 1.07; stroke: none;"
     id="polyline38" />
  <polyline
     points="351.19,209.16 351.16,208.27 351.07,207.38 350.94,206.51 350.74,205.64 350.49,204.78 350.19,203.94 349.84,203.13 349.43,202.33 348.98,201.57 348.48,200.83 347.93,200.13 347.34,199.46 346.72,198.83 346.05,198.24 345.34,197.69 344.61,197.19 343.84,196.74 343.05,196.34 342.23,195.98 341.39,195.68 340.54,195.43 339.67,195.24 338.79,195.10 337.90,195.02 337.01,194.99 336.12,195.02 335.24,195.10 334.36,195.24 333.49,195.43 332.63,195.68 331.80,195.98 330.98,196.34 330.18,196.74 329.42,197.19 328.68,197.69 327.98,198.24 327.31,198.83 326.68,199.46 326.09,200.13 325.55,200.83 325.05,201.57 324.59,202.33 324.19,203.13 323.84,203.94 323.53,204.78 323.28,205.64 323.09,206.51 322.95,207.38 322.87,208.27 322.84,209.16 322.87,210.05 322.95,210.94 323.09,211.82 323.28,212.69 323.53,213.54 323.84,214.38 324.19,215.20 324.59,215.99 325.05,216.76 325.55,217.49 326.09,218.20 326.68,218.86 327.31,219.49 327.98,220.08 328.68,220.63 329.42,221.13 330.18,221.58 330.98,221.99 331.80,222.34 332.63,222.64 333.49,222.89 334.36,223.08 335.24,223.22 336.12,223.31 337.01,223.33 337.90,223.31 338.79,223.22 339.67,223.08 340.54,222.89 341.39,222.64 342.23,222.34 343.05,221.99 343.84,221.58 344.61,221.13 345.34,220.63 346.05,220.08 346.72,219.49 347.34,218.86 347.93,218.20 348.48,217.49 348.98,216.76 349.43,215.99 349.84,215.20 350.19,214.38 350.49,213.54 350.74,212.69 350.94,211.82 351.07,210.94 351.16,210.05 351.19,209.16 "
     style="stroke-width: 1.07; stroke: none;"
     id="polyline40" />
  <polyline
     points="515.51,288.64 515.48,287.75 515.40,286.87 515.26,285.99 515.07,285.12 514.82,284.26 514.52,283.43 514.16,282.61 513.76,281.82 513.30,281.05 512.80,280.31 512.26,279.61 511.67,278.94 511.04,278.31 510.37,277.72 509.67,277.18 508.93,276.68 508.17,276.22 507.37,275.82 506.55,275.47 505.72,275.16 504.86,274.92 503.99,274.72 503.11,274.58 502.23,274.50 501.34,274.47 500.45,274.50 499.56,274.58 498.68,274.72 497.81,274.92 496.96,275.16 496.12,275.47 495.30,275.82 494.51,276.22 493.74,276.68 493.01,277.18 492.30,277.72 491.64,278.31 491.01,278.94 490.42,279.61 489.87,280.31 489.37,281.05 488.92,281.82 488.51,282.61 488.16,283.43 487.86,284.26 487.61,285.12 487.42,285.99 487.28,286.87 487.19,287.75 487.16,288.64 487.19,289.53 487.28,290.42 487.42,291.30 487.61,292.17 487.86,293.02 488.16,293.86 488.51,294.68 488.92,295.47 489.37,296.24 489.87,296.98 490.42,297.68 491.01,298.35 491.64,298.98 492.30,299.56 493.01,300.11 493.74,300.61 494.51,301.06 495.30,301.47 496.12,301.82 496.96,302.12 497.81,302.37 498.68,302.57 499.56,302.71 500.45,302.79 501.34,302.82 502.23,302.79 503.11,302.71 503.99,302.57 504.86,302.37 505.72,302.12 506.55,301.82 507.37,301.47 508.17,301.06 508.93,300.61 509.67,300.11 510.37,299.56 511.04,298.98 511.67,298.35 512.26,297.68 512.80,296.98 513.30,296.24 513.76,295.47 514.16,294.68 514.52,293.86 514.82,293.02 515.07,292.17 515.26,291.30 515.40,290.42 515.48,289.53 515.51,288.64 "
     style="stroke-width: 1.07; stroke: none;"
     id="polyline42" />
  <polyline
     points="678.05,288.64 678.02,287.75 677.94,286.87 677.80,285.99 677.60,285.12 677.36,284.26 677.05,283.43 676.70,282.61 676.30,281.82 675.84,281.05 675.34,280.31 674.80,279.61 674.21,278.94 673.58,278.31 672.91,277.72 672.21,277.18 671.47,276.68 670.70,276.22 669.91,275.82 669.09,275.47 668.26,275.16 667.40,274.92 666.53,274.72 665.65,274.58 664.77,274.50 663.88,274.47 662.99,274.50 662.10,274.58 661.22,274.72 660.35,274.92 659.50,275.16 658.66,275.47 657.84,275.82 657.05,276.22 656.28,276.68 655.55,277.18 654.84,277.72 654.17,278.31 653.54,278.94 652.96,279.61 652.41,280.31 651.91,281.05 651.46,281.82 651.05,282.61 650.70,283.43 650.40,284.26 650.15,285.12 649.95,285.99 649.81,286.87 649.73,287.75 649.70,288.64 649.73,289.53 649.81,290.42 649.95,291.30 650.15,292.17 650.40,293.02 650.70,293.86 651.05,294.68 651.46,295.47 651.91,296.24 652.41,296.98 652.96,297.68 653.54,298.35 654.17,298.98 654.84,299.56 655.55,300.11 656.28,300.61 657.05,301.06 657.84,301.47 658.66,301.82 659.50,302.12 660.35,302.37 661.22,302.57 662.10,302.71 662.99,302.79 663.88,302.82 664.77,302.79 665.65,302.71 666.53,302.57 667.40,302.37 668.26,302.12 669.09,301.82 669.91,301.47 670.70,301.06 671.47,300.61 672.21,300.11 672.91,299.56 673.58,298.98 674.21,298.35 674.80,297.68 675.34,296.98 675.84,296.24 676.30,295.47 676.70,294.68 677.05,293.86 677.36,293.02 677.60,292.17 677.80,291.30 677.94,290.42 678.02,289.53 678.05,288.64 "
     style="stroke-width: 1.07; stroke: none;"
     id="polyline44" />
  <rect
     x="71.52"
     y="177.87"
     width="102.27"
     height="26.45"
     style="stroke-width: 0.75; stroke: none;"
     id="rect46" />
  <text
     x="77.19"
     y="189.05"
     style="font-size: 8.00px; font-family: Fira Sans;"
     textLength="71.39px"
     lengthAdjust="spacingAndGlyphs"
     id="text48">Started reading The</text>
  <text
     x="77.19"
     y="198.65"
     style="font-size: 8.00px; font-family: Fira Sans;"
     textLength="90.94px"
     lengthAdjust="spacingAndGlyphs"
     id="text50">Stormlight Archive Series</text>
  <rect
     x="288.42"
     y="144.12"
     width="97.18"
     height="16.85"
     style="stroke-width: 0.75; stroke: none;"
     id="rect52" />
  <text
     x="294.09"
     y="155.30"
     style="font-size: 8.00px; font-family: Fira Sans;"
     textLength="85.84px"
     lengthAdjust="spacingAndGlyphs"
     id="text54">Reread The Meditations</text>
  <rect
     x="469.24"
     y="214.00"
     width="64.19"
     height="26.45"
     style="stroke-width: 0.75; stroke: none;"
     id="rect56" />
  <text
     x="474.91"
     y="225.19"
     style="font-size:8px;font-family:'Fira Sans'"
     textLength="52.860001"
     lengthAdjust="spacingAndGlyphs"
     id="text58"
     transform="translate(3.1036497,10.086862)">Reader's block</text>
  <text
     x="474.91"
     y="234.78999"
     style="font-size:8px;font-family:'Fira Sans'"
     textLength="25.959999"
     lengthAdjust="spacingAndGlyphs"
     id="text60"
     transform="translate(3.8795622,9.3109492)">started</text>
  <rect
     x="623.51"
     y="214.00"
     width="64.54"
     height="26.45"
     style="stroke-width: 0.75; stroke: none;"
     id="rect62" />
  <text
     x="629.18"
     y="225.19"
     style="font-size: 8.00px; font-family: Fira Sans;"
     textLength="49.22px"
     lengthAdjust="spacingAndGlyphs"
     id="text64">Got out of my</text>
  <text
     x="629.18"
     y="234.79"
     style="font-size: 8.00px; font-family: Fira Sans;"
     textLength="53.20px"
     lengthAdjust="spacingAndGlyphs"
     id="text66"> reader's block</text>
  <polyline
     points="71.52,177.87 173.79,177.87 171.48,177.87 139.00,145.39 "
     style="stroke-width: 1.07; stroke: #211A1D;"
     id="polyline68" />
  <polyline
     points="385.60,160.97 288.42,160.97 288.42,160.97 320.78,193.33 "
     style="stroke-width: 1.07; stroke: #211A1D;"
     id="polyline70" />
  <polyline
     points="533.43,240.46 469.24,240.46 469.24,252.17 487.73,270.66 "
     style="stroke:#211a1d;stroke-width:1.07"
     id="polyline72"
     transform="translate(2.14,9.65)" />
  <polyline
     points="623.51,240.46 688.05,240.46 688.05,257.82 676.02,269.85 "
     style="stroke-width: 1.07; stroke: #211A1D;"
     id="polyline74" />
  <text
     x="27.61"
     y="371.17"
     style="font-size: 8.80px; fill: #525252; font-family: Fira Sans;"
     textLength="4.91px"
     lengthAdjust="spacingAndGlyphs"
     id="text76">0</text>
  <text
     x="28.71"
     y="291.68"
     style="font-size: 8.80px; fill: #525252; font-family: Fira Sans;"
     textLength="3.81px"
     lengthAdjust="spacingAndGlyphs"
     id="text78">1</text>
  <text
     x="28.16"
     y="212.20"
     style="font-size: 8.80px; fill: #525252; font-family: Fira Sans;"
     textLength="4.36px"
     lengthAdjust="spacingAndGlyphs"
     id="text80">2</text>
  <text
     x="28.12"
     y="132.71"
     style="font-size: 8.80px; fill: #525252; font-family: Fira Sans;"
     textLength="4.39px"
     lengthAdjust="spacingAndGlyphs"
     id="text82">3</text>
  <polyline
     points="67.28,382.80 67.28,380.06 "
     style="stroke-width: 1.07; stroke: #333333; stroke-linecap: butt;"
     id="polyline84" />
  <polyline
     points="122.65,382.80 122.65,380.06 "
     style="stroke-width: 1.07; stroke: #333333; stroke-linecap: butt;"
     id="polyline86" />
  <polyline
     points="172.67,382.80 172.67,380.06 "
     style="stroke-width: 1.07; stroke: #333333; stroke-linecap: butt;"
     id="polyline88" />
  <polyline
     points="228.04,382.80 228.04,380.06 "
     style="stroke-width: 1.07; stroke: #333333; stroke-linecap: butt;"
     id="polyline90" />
  <polyline
     points="281.63,382.80 281.63,380.06 "
     style="stroke-width: 1.07; stroke: #333333; stroke-linecap: butt;"
     id="polyline92" />
  <polyline
     points="337.00,382.80 337.00,380.06 "
     style="stroke-width: 1.07; stroke: #333333; stroke-linecap: butt;"
     id="polyline94" />
  <polyline
     points="390.59,382.80 390.59,380.06 "
     style="stroke-width: 1.07; stroke: #333333; stroke-linecap: butt;"
     id="polyline96" />
  <polyline
     points="445.96,382.80 445.96,380.06 "
     style="stroke-width: 1.07; stroke: #333333; stroke-linecap: butt;"
     id="polyline98" />
  <polyline
     points="501.34,382.80 501.34,380.06 "
     style="stroke-width: 1.07; stroke: #333333; stroke-linecap: butt;"
     id="polyline100" />
  <polyline
     points="554.93,382.80 554.93,380.06 "
     style="stroke-width: 1.07; stroke: #333333; stroke-linecap: butt;"
     id="polyline102" />
  <polyline
     points="610.30,382.80 610.30,380.06 "
     style="stroke-width: 1.07; stroke: #333333; stroke-linecap: butt;"
     id="polyline104" />
  <polyline
     points="663.89,382.80 663.89,380.06 "
     style="stroke-width: 1.07; stroke: #333333; stroke-linecap: butt;"
     id="polyline106" />
  <text
     x="61.02"
     y="391.06"
     style="font-size: 8.80px; fill: #525252; font-family: Fira Sans;"
     textLength="12.52px"
     lengthAdjust="spacingAndGlyphs"
     id="text108">Jan</text>
  <text
     x="58.56"
     y="400.56"
     style="font-size: 8.80px; fill: #525252; font-family: Fira Sans;"
     textLength="17.43px"
     lengthAdjust="spacingAndGlyphs"
     id="text110">2021</text>
  <text
     x="115.52"
     y="391.06"
     style="font-size: 8.80px; fill: #525252; font-family: Fira Sans;"
     textLength="14.26px"
     lengthAdjust="spacingAndGlyphs"
     id="text112">Feb</text>
  <text
     x="165.19"
     y="391.06"
     style="font-size: 8.80px; fill: #525252; font-family: Fira Sans;"
     textLength="14.96px"
     lengthAdjust="spacingAndGlyphs"
     id="text114">Mar</text>
  <text
     x="221.26"
     y="391.06"
     style="font-size: 8.80px; fill: #525252; font-family: Fira Sans;"
     textLength="13.57px"
     lengthAdjust="spacingAndGlyphs"
     id="text116">Apr</text>
  <text
     x="273.67"
     y="391.06"
     style="font-size: 8.80px; fill: #525252; font-family: Fira Sans;"
     textLength="15.92px"
     lengthAdjust="spacingAndGlyphs"
     id="text118">May</text>
  <text
     x="330.58"
     y="391.06"
     style="font-size: 8.80px; fill: #525252; font-family: Fira Sans;"
     textLength="12.84px"
     lengthAdjust="spacingAndGlyphs"
     id="text120">Jun</text>
  <text
     x="385.42"
     y="391.06"
     style="font-size: 8.80px; fill: #525252; font-family: Fira Sans;"
     textLength="10.33px"
     lengthAdjust="spacingAndGlyphs"
     id="text122">Jul</text>
  <text
     x="438.62"
     y="391.06"
     style="font-size: 8.80px; fill: #525252; font-family: Fira Sans;"
     textLength="14.68px"
     lengthAdjust="spacingAndGlyphs"
     id="text124">Aug</text>
  <text
     x="493.97"
     y="391.06"
     style="font-size: 8.80px; fill: #525252; font-family: Fira Sans;"
     textLength="14.74px"
     lengthAdjust="spacingAndGlyphs"
     id="text126">Sep</text>
  <text
     x="548.19"
     y="391.06"
     style="font-size: 8.80px; fill: #525252; font-family: Fira Sans;"
     textLength="13.47px"
     lengthAdjust="spacingAndGlyphs"
     id="text128">Oct</text>
  <text
     x="602.56"
     y="391.06"
     style="font-size: 8.80px; fill: #525252; font-family: Fira Sans;"
     textLength="15.48px"
     lengthAdjust="spacingAndGlyphs"
     id="text130">Nov</text>
  <text
     x="656.56"
     y="391.06"
     style="font-size: 8.80px; fill: #525252; font-family: Fira Sans;"
     textLength="14.66px"
     lengthAdjust="spacingAndGlyphs"
     id="text132">Dec</text>
  <text
     transform="translate(22.52,305.92) rotate(-90)"
     style="font-size: 11.00px; fill: #525252; font-family: Fira Sans;"
     textLength="114.02px"
     lengthAdjust="spacingAndGlyphs"
     id="text134">Number of Books Read</text>
  <text
     x="304.02"
     y="77.42"
     style="font-size: 10.00px; fill: #525252; font-family: Fira Sans;"
     textLength="123.13px"
     lengthAdjust="spacingAndGlyphs"
     id="text136">Avg Number of Words Read</text>
  <rect
     x="263.47"
     y="83.47"
     width="17.28"
     height="17.85"
     style="stroke-width: 1.07; stroke: none; fill: #F2F2F2;"
     id="rect138" />
  <circle
     cx="272.11"
     cy="92.39"
     r="1.06"
     style="stroke-width: 2.13; stroke: #211A1D; fill: #F5F5F5;"
     id="circle140" />
  <rect
     x="295.73"
     y="83.47"
     width="17.28"
     height="17.85"
     style="stroke-width: 1.07; stroke: none; fill: #F2F2F2;"
     id="rect142" />
  <circle
     cx="304.37"
     cy="92.39"
     r="4.94"
     style="stroke-width: 2.13; stroke: #211A1D; fill: #F5F5F5;"
     id="circle144" />
  <rect
     x="354.14"
     y="83.47"
     width="17.28"
     height="17.85"
     style="stroke-width: 1.07; stroke: none; fill: #F2F2F2;"
     id="rect146" />
  <circle
     cx="362.78"
     cy="92.39"
     r="6.55"
     style="stroke-width: 2.13; stroke: #211A1D; fill: #F5F5F5;"
     id="circle148" />
  <rect
     x="413.11"
     y="83.47"
     width="17.85"
     height="17.85"
     style="stroke-width: 1.07; stroke: none; fill: #F2F2F2;"
     id="rect150" />
  <circle
     cx="422.03"
     cy="92.39"
     r="7.78"
     style="stroke-width: 2.13; stroke: #211A1D; fill: #F5F5F5;"
     id="circle152" />
  <text
     x="285.73"
     y="95.49"
     style="font-size: 9.00px; fill: #525252; font-family: Fira Sans;"
     textLength="5.02px"
     lengthAdjust="spacingAndGlyphs"
     id="text154">0</text>
  <text
     x="317.99"
     y="95.49"
     style="font-size: 9.00px; fill: #525252; font-family: Fira Sans;"
     textLength="31.17px"
     lengthAdjust="spacingAndGlyphs"
     id="text156">100,000</text>
  <text
     x="376.40"
     y="95.49"
     style="font-size: 9.00px; fill: #525252; font-family: Fira Sans;"
     textLength="31.72px"
     lengthAdjust="spacingAndGlyphs"
     id="text158">200,000</text>
  <text
     x="435.94"
     y="95.49"
     style="font-size: 9.00px; fill: #525252; font-family: Fira Sans;"
     textLength="31.76px"
     lengthAdjust="spacingAndGlyphs"
     id="text160">300,000</text>
  <text
     x="14.94"
     y="56.17"
     style="font-size: 11.00px; fill: #525252; font-family: Fira Sans;"
     textLength="260.03px"
     lengthAdjust="spacingAndGlyphs"
     id="text162">Read 19 books in 2021, for a total of 2,754,448 words.</text>
  <text
     x="14.94"
     y="38.87"
     style="font-size: 20.00px; fill: #211A1D; font-family: IBM Plex Sans;"
     textLength="252.42px"
     lengthAdjust="spacingAndGlyphs"
     id="text164">My Reading Timeline (2021)</text>
  <text
     x="550.24"
     y="413.46"
     style="font-size: 8.00px; fill: #525252; font-family: Fira Sans;"
     textLength="47.95px"
     lengthAdjust="spacingAndGlyphs"
     id="text166">Visualization:</text>
  <text
     x="600.31"
     y="413.46"
     style="font-size: 8.00px; font-weight: bold; fill: #525252; font-family: Fira Sans;"
     textLength="36.14px"
     lengthAdjust="spacingAndGlyphs"
     id="text168">@luisfreii</text>
  <text
     x="638.57"
     y="413.46"
     style="font-size: 8.00px; fill: #525252; font-family: Fira Sans;"
     textLength="3.22px"
     lengthAdjust="spacingAndGlyphs"
     id="text170">|</text>
  <text
     x="643.92"
     y="413.46"
     style="font-size: 8.00px; fill: #525252; font-family: Fira Sans;"
     textLength="19.61px"
     lengthAdjust="spacingAndGlyphs"
     id="text172">Made</text>
  <text
     x="665.65"
     y="413.46"
     style="font-size: 8.00px; fill: #525252; font-family: Fira Sans;"
     textLength="9.29px"
     lengthAdjust="spacingAndGlyphs"
     id="text174">up</text>
  <text
     x="677.05"
     y="413.46"
     style="font-size: 8.00px; fill: #525252; font-family: Fira Sans;"
     textLength="16.66px"
     lengthAdjust="spacingAndGlyphs"
     id="text176">Data</text>
</svg>
